PathFileType	4	(X/Y/Z)	C:/Users/opensim2020/Desktop/walking_exp_matlab/subject01_walking04_straight_04.trc	
DataRate	CameraRate	NumFrames	NumMarkers	Units	OrigDataRate	OrigDataStartFrame	OrigNumFrames	
100.00	100.00	5	43	mm	100.00	2941	279	
Frame#	Time	LFHD			RFHD			LBHD			RBHD			C7			T10			CLAV			STRN			RBAK			LSHO			LUPA			LELB			LFRM			LWRA			LWRB			LFIN			RSHO			RUPA			RELB			RFRM			RWRA			RWRB			RFIN			LASI			RASI			LPSI			RPSI			LTHI			LKNE			LTIB			LANK			LHEE			LTOE			RTHI			RKNE			RTIB			RANK			RHEE			RTOE			*39			*40			*41			*42			
		X1	Y1	Z1	X2	Y2	Z2	X3	Y3	Z3	X4	Y4	Z4	X5	Y5	Z5	X6	Y6	Z6	X7	Y7	Z7	X8	Y8	Z8	X9	Y9	Z9	X10	Y10	Z10	X11	Y11	Z11	X12	Y12	Z12	X13	Y13	Z13	X14	Y14	Z14	X15	Y15	Z15	X16	Y16	Z16	X17	Y17	Z17	X18	Y18	Z18	X19	Y19	Z19	X20	Y20	Z20	X21	Y21	Z21	X22	Y22	Z22	X23	Y23	Z23	X24	Y24	Z24	X25	Y25	Z25	X26	Y26	Z26	X27	Y27	Z27	X28	Y28	Z28	X29	Y29	Z29	X30	Y30	Z30	X31	Y31	Z31	X32	Y32	Z32	X33	Y33	Z33	X34	Y34	Z34	X35	Y35	Z35	X36	Y36	Z36	X37	Y37	Z37	X38	Y38	Z38	X39	Y39	Z39	X40	Y40	Z40	X41	Y41	Z41	X42	Y42	Z42	X43	Y43	Z43	

245	2.440	1455.66333	-524.05573	1665.93958	1342.91455	-546.97021	1663.33850	1440.64111	-403.63443	1633.18909	1320.56689	-424.61691	1630.02197	1408.47302	-348.01627	1434.24426	1404.65442	-316.14468	1138.74866	1415.91602	-491.28006	1364.26733	1429.00757	-534.96069	1212.13635	1332.79102	-298.95395	1234.98267	1573.58862	-423.63031	1399.79089	1661.39490	-383.36325	1219.90051	1664.56165	-364.42065	1067.62073	1688.75439	-413.33362	962.49774	1671.07080	-507.40985	859.72546	1692.41028	-451.99756	846.51550	1703.62390	-508.85049	784.52167	1261.25781	-433.16376	1388.20886	1160.19983	-383.56741	1187.13745	1158.72388	-384.57858	1061.23889	1132.61938	-422.01013	945.19458	1158.10046	-510.02246	835.91357	1117.28271	-469.29742	832.59277	1120.78308	-513.19525	760.03967	1524.73474	-487.69019	936.79163	1307.25989	-503.94318	938.47150	1461.26050	-306.31619	942.07520	1317.33252	-317.35794	947.79645	1605.96179	-523.11707	618.45868	1601.61609	-541.67493	487.14053	1592.98767	-417.37759	352.23315	1532.02734	-293.85559	175.02344	1466.48303	-255.17795	165.54233	1563.24097	-385.97641	67.04682	1261.38220	-456.29422	602.13947	1292.91357	-462.87759	444.52438	1289.30957	-406.80029	275.79868	1347.01636	-376.18738	73.39499	1396.13831	-324.32327	37.86641	1356.92969	-516.69183	32.71696	1362.86389	-536.46887	1699.36230	-3101.93677	1973.04858	1023.79047	-3140.55518	2012.57678	1021.98511			 
246	2.450	1455.74243	-533.99207	1665.64722	1342.99438	-556.96320	1663.15112	1440.69189	-413.55856	1633.09766	1320.60535	-434.44803	1630.04822	1408.11841	-357.44736	1434.40259	1404.09021	-325.20013	1138.87097	1415.77283	-500.74484	1364.34851	1428.70935	-544.14349	1211.96008	1332.24524	-308.21939	1235.13354	1573.32727	-432.73383	1399.72229	1660.69763	-391.07150	1219.84680	1663.03540	-371.10492	1067.88440	1687.09082	-416.76849	961.43353	1669.35876	-507.78214	855.75421	1690.49097	-451.86279	844.18921	1701.69116	-506.71307	780.45941	1261.10437	-442.62891	1388.22144	1159.47229	-393.84189	1187.25244	1157.27087	-396.21371	1061.16125	1131.75769	-436.39621	945.71527	1157.86719	-527.11517	838.99280	1117.35730	-486.18793	834.39685	1120.67798	-532.34851	763.15698	1524.18884	-496.81494	937.07947	1306.60913	-512.32074	938.07782	1461.10181	-315.14810	942.21539	1317.18738	-325.90344	947.81866	1606.02539	-536.42010	620.35022	1601.16992	-556.74792	488.94046	1593.10596	-437.26718	348.38010	1532.13965	-320.57013	166.65640	1466.66577	-282.32913	154.75209	1565.31628	-418.09396	64.45271	1261.20215	-461.56708	601.84576	1292.61963	-466.27786	443.92041	1289.20288	-408.88550	275.99634	1347.02124	-376.65280	73.82151	1396.00476	-324.49158	38.38122	1356.86035	-516.84619	32.64357	1363.01196	-546.44440	1699.15344	-3101.86768	1973.04199	1023.43079	-3140.65063	2012.46399	1021.87073			 
247	2.460	1455.97583	-543.83783	1665.26428	1343.14929	-566.70959	1662.91174	1440.84595	-423.35779	1632.83167	1320.76428	-444.23099	1629.98352	1407.75232	-367.05350	1434.24976	1403.58582	-334.29022	1138.88013	1415.65088	-510.01556	1363.97900	1428.53149	-553.43976	1211.71948	1331.73962	-317.47516	1235.26855	1573.22827	-441.93762	1399.60132	1660.01147	-398.82877	1219.63745	1661.56897	-377.89151	1068.01147	1685.54565	-420.38199	960.48132	1667.83130	-508.26996	852.00330	1688.75854	-451.90775	842.12067	1699.81689	-504.78848	776.60474	1260.98877	-452.18430	1388.20142	1158.87915	-403.91797	1187.27441	1156.31262	-407.64587	1060.95996	1130.92529	-450.65710	946.29181	1157.79407	-543.87695	842.01367	1117.01038	-503.21182	836.07941	1120.64392	-551.40631	766.37592	1523.38416	-505.57834	937.11169	1306.06531	-520.78918	937.58624	1461.02881	-323.97928	942.23669	1317.09839	-334.45847	947.76874	1605.98425	-549.39294	621.94958	1600.68005	-571.39948	490.31552	1593.13245	-457.10574	344.23862	1532.51453	-348.04926	157.65375	1467.35669	-310.51895	143.17879	1567.46667	-450.67340	61.54389	1261.06335	-466.84412	601.49463	1292.47742	-469.90845	443.49811	1289.09290	-411.03766	276.10025	1346.99402	-376.79932	74.08929	1395.95923	-324.93594	39.63182	1356.93335	-516.84833	32.42710	1363.21924	-556.31396	1698.88733	-3102.10083	1972.99573	1023.88361	-3140.49976	2012.57605	1022.02380			 
248	2.470	1456.15503	-553.57111	1664.79102	1343.45068	-576.59735	1662.79102	1441.07068	-433.06943	1632.48206	1320.95996	-453.89355	1629.78589	1407.56006	-376.60699	1434.10010	1403.11877	-343.43817	1138.83215	1415.62903	-519.41956	1363.62500	1428.40417	-562.66589	1211.42249	1331.27222	-326.63361	1235.36670	1573.16907	-451.19327	1399.33142	1659.41626	-406.68903	1219.37268	1660.14478	-384.71332	1068.07300	1684.15491	-424.15530	959.63037	1666.39368	-508.85287	848.47754	1687.33655	-452.20193	840.34393	1697.98804	-502.93164	772.95514	1260.89514	-461.77722	1388.03955	1158.36096	-413.96777	1187.23242	1154.96167	-419.12622	1060.82007	1130.11487	-464.85474	946.84155	1157.78271	-560.47827	845.14972	1116.73193	-520.24939	838.07733	1120.67725	-570.29803	769.76587	1522.84290	-514.44995	936.96393	1305.57556	-529.51898	937.04956	1460.97632	-332.82217	942.04120	1317.08081	-343.01764	947.36804	1605.91296	-562.03522	623.33844	1600.10144	-585.61273	491.35376	1593.28870	-476.68201	339.96780	1533.24402	-376.12512	148.40465	1467.96619	-339.49057	131.40968	1569.84924	-483.71469	58.74648	1260.96619	-472.34845	601.42865	1292.36414	-473.43771	443.06055	1289.03955	-413.44949	276.01602	1347.03186	-377.14975	74.39607	1395.89795	-325.16177	40.10714	1356.95776	-517.00488	32.36784	1363.46350	-566.00989	1698.58167	-3101.91162	1973.13013	1023.43335	-3140.62134	2012.62817	1022.04633			 
249	2.480	1456.38831	-563.25433	1664.33508	1343.55542	-586.01935	1662.34607	1441.39697	-442.76984	1632.00232	1321.28552	-463.43875	1629.46985	1407.50330	-386.18179	1433.88062	1402.75232	-352.55859	1138.66467	1415.70203	-528.80530	1363.21680	1428.26819	-571.89093	1210.92566	1330.81519	-335.84396	1235.39856	1573.23132	-460.54755	1398.95483	1658.92297	-414.69662	1218.99524	1658.84106	-391.61270	1068.08875	1682.76978	-428.15121	958.85815	1665.00488	-509.65994	845.12866	1685.99390	-452.74164	838.77161	1696.14246	-501.31284	769.48547	1260.94202	-471.24304	1387.89185	1157.99280	-423.93735	1186.99683	1153.90662	-430.54877	1060.55310	1129.40649	-478.92319	947.48334	1157.81543	-576.70831	848.21338	1116.69202	-537.22021	840.09845	1120.70374	-588.90753	773.19580	1522.48828	-523.56940	936.80756	1305.20593	-537.77618	936.26172	1461.09387	-341.70837	941.69208	1317.20850	-351.62881	947.00745	1605.79797	-574.30792	624.46204	1599.42932	-599.12701	492.09970	1593.67236	-496.14020	335.52737	1534.33130	-404.94489	139.08400	1468.63977	-369.85110	119.82220	1572.44617	-516.89813	55.87405	1260.87451	-477.54138	600.73486	1292.22974	-477.08362	442.50165	1288.91980	-415.75684	275.94995	1347.04919	-377.48468	74.70034	1396.10999	-325.29092	40.83609	1356.93115	-517.14227	32.37701	1363.72498	-575.58826	1698.20300	-3102.09863	1972.93445	1023.77148	-3140.50537	2012.60632	1022.04663			 
